<svg version="1.1" xmlns="http://www.w3.org/2000/svg" xmlns:xlink="http://www.w3.org/1999/xlink" width="300.000000pt" height="303.000000pt" viewBox="0,0,253.45313,256"><g fill-opacity="0.0902" fill="#000000" fill-rule="nonzero" stroke="none" stroke-width="1" stroke-linecap="butt" stroke-linejoin="miter" stroke-miterlimit="10" stroke-dasharray="" stroke-dashoffset="0" font-family="none" font-weight="none" font-size="none" text-anchor="none" style="mix-blend-mode: normal"><g transform="translate(-0.63977,-1.30403) scale(0.84488,0.84488)"><g transform="translate(0,303) scale(0.1,-0.1)"><path d="M998,2910c-75,-13 -176,-49 -263,-93c-289,-149 -493,-419 -559,-739c-13,-62 -16,-146 -16,-416c0,-330 1,-343 25,-436c32,-122 93,-254 177,-379c60,-89 65,-100 57,-130c-5,-17 -29,-140 -54,-272c-26,-132 -51,-261 -57,-288c-5,-26 -7,-54 -4,-62c6,-17 37,-20 51,-6c10,9 181,100 460,246c175,91 545,306 545,317c0,4 -69,8 -152,8c-84,0 -171,5 -193,10c-44,10 -37,13 -272,-123c-131,-77 -153,-86 -153,-67c0,11 72,149 122,233c15,26 28,51 28,55c0,4 -22,24 -49,44c-111,83 -238,282 -283,445c-21,73 -22,101 -22,423c-1,325 0,350 21,427c77,288 309,514 590,577c98,22 895,23 1015,2c94,-17 240,-85 320,-150c149,-119 265,-319 295,-506c5,-30 9,-201 8,-380c-1,-322 -2,-326 -28,-413c-83,-270 -261,-463 -507,-548c-55,-18 -93,-23 -240,-27l-175,-4l-70,-52c-111,-83 -182,-134 -221,-161c-20,-14 -33,-25 -28,-25c5,0 134,0 287,0c307,1 379,9 520,61c330,121 558,378 659,743c22,77 23,97 23,456v375l-28,92c-56,189 -138,331 -267,467c-88,92 -165,149 -275,204c-96,47 -187,78 -275,92c-76,12 -941,12 -1012,0zM2105,2851c251,-81 452,-241 577,-460c39,-67 55,-101 90,-190c5,-13 18,-61 28,-108c18,-73 20,-123 21,-406c0,-201 -4,-346 -11,-385c-22,-122 -87,-284 -158,-396c-58,-92 -179,-220 -245,-259c-18,-11 -34,-23 -37,-27c-11,-14 -138,-77 -210,-103c-135,-48 -190,-56 -420,-57c-118,-1 -221,-1 -227,-1c-24,2 -13,21 25,46c20,14 53,36 72,50c93,67 86,65 221,65c69,0 152,5 185,11c117,21 269,93 359,170c132,113 256,332 290,514c10,54 6,700 -5,748c-38,170 -118,318 -237,440c-100,102 -204,163 -356,209c-68,20 -95,21 -532,24c-545,4 -549,4 -735,-85c-30,-14 -57,-28 -60,-31c-3,-3 -24,-18 -48,-33c-148,-96 -286,-308 -328,-505c-15,-70 -22,-684 -9,-757c33,-189 139,-382 279,-512c64,-60 65,-45 -12,-186c-64,-118 -71,-146 -43,-171c12,-11 29,-16 41,-13c11,3 98,48 193,100l172,95l50,-8c28,-5 77,-9 111,-9c33,-1 64,-4 68,-8c6,-6 -75,-63 -90,-63c-3,0 -24,-13 -47,-28c-23,-16 -80,-48 -127,-72c-47,-23 -89,-46 -95,-50c-5,-4 -82,-44 -170,-90c-88,-45 -164,-86 -170,-90c-16,-12 -152,-80 -160,-80c-10,0 1,83 25,190c25,113 80,403 80,422c0,9 -32,64 -71,123c-73,112 -112,188 -146,290c-43,124 -47,168 -47,505c0,351 6,403 60,550c92,249 273,451 511,570c147,74 190,82 438,87c121,2 231,5 245,6c14,1 151,-1 305,-4c254,-5 286,-8 350,-28z"></path><path d="M1158,2369c-124,-19 -264,-89 -359,-179c-48,-46 -117,-145 -150,-216c-117,-252 -81,-543 93,-761c116,-146 295,-235 516,-257l52,-5v118v118l-62,7c-253,27 -442,254 -425,511c6,100 35,178 95,258c80,104 231,187 344,187h48v115v116l-52,-3c-29,-1 -74,-5 -100,-9zM1258,2332c11,-7 18,-64 13,-113c-1,-18 -35,-34 -91,-43c-50,-9 -130,-48 -194,-95c-152,-112 -231,-316 -196,-502c39,-205 229,-393 420,-417l55,-7l3,-78l3,-77h-38c-64,0 -164,29 -253,72c-162,78 -292,241 -339,423c-20,82 -26,228 -12,303c37,190 171,376 333,462c112,60 259,95 296,72z"></path><path d="M1504,2371c-2,-2 -4,-321 -4,-708v-703l68,-2c37,-1 157,0 267,1c230,4 288,16 370,79c198,151 221,427 47,582l-55,49l51,46c86,77 130,196 113,302c-25,154 -134,280 -288,332c-52,17 -92,20 -312,23c-139,2 -255,1 -257,-1zM2004,2328c157,-33 281,-148 315,-293c22,-95 -12,-205 -88,-286c-73,-76 -74,-90 -2,-154c135,-123 134,-351 -4,-491c-40,-40 -92,-72 -146,-89c-68,-22 -483,-35 -518,-16l-21,12v652c0,475 3,656 11,664c15,15 382,16 453,1z"></path><path d="M1719,2161c-24,-19 -24,-21 -21,-197c1,-111 6,-182 13,-191c20,-23 83,-33 195,-30c130,3 171,21 222,96c60,87 50,194 -26,275c-50,53 -93,66 -233,66c-110,0 -130,-3 -150,-19zM2029,2123c100,-51 134,-191 64,-273c-50,-60 -88,-71 -231,-68l-127,3l-3,170c-1,93 -1,174 1,180c3,6 51,9 132,8c99,-2 137,-7 164,-20z"></path><path d="M1722,1567c-20,-21 -22,-34 -23,-188c-1,-175 4,-202 46,-215c11,-4 75,-6 143,-6c153,1 192,16 246,95c32,46 36,60 36,112c0,94 -45,162 -135,205c-33,16 -63,20 -166,20c-118,0 -127,-1 -147,-23zM2052,1520c109,-72 112,-228 5,-298c-39,-26 -46,-27 -179,-27h-139l-4,178l-5,177h138c137,0 139,0 184,-30z"></path></g></g></g></svg>